<svg style="enable-background:new 0 0 512 512;" version="1.1" viewBox="0 0 512 512" xml:space="preserve" xmlns="http://www.w3.org/2000/svg"
		 xmlns:xlink="http://www.w3.org/1999/xlink">
			<style type="text/css">
				.st0 {
					fill: #FFFFFF;
				}

				.st1 {
					fill: #E6E7E8;
				}

				.st2 {
					fill: #402943;
				}

				.st3 {
					fill: #F05458;
				}

				.st4 {
					fill: #D9383C;
				}

				.st5 {
					fill: #4AB5AC;
				}

				.st6 {
					fill: #3F9991;
				}
			</style>
			<g>
				<g>
					<g>
						<g>
							<g>
								<path class="st0" d="M343.6,178.2c0,5.4-4.4,9.7-9.7,9.7c-5.4,0-9.7-4.4-9.7-9.7H51.7v194.6c0,21.5,17.4,38.9,38.9,38.9h19.5       H149l0,0c0-5.4,4.4-9.7,9.7-9.7c5.4,0,9.7,4.4,9.7,9.7l0,0h233.5h19.5c21.5,0,38.9-17.4,38.9-38.9V178.2H343.6z"
								/>
								<g>
									<path class="st1" d="M411.7,178.2v194.6c0,21.5-17.4,38.9-38.9,38.9h29.2h19.5c21.5,0,38.9-17.4,38.9-38.9V178.2H411.7z" />
								</g>
								<g>
									<path class="st1" d="M100.3,178.2v194.6c0,21.5,17.4,38.9,38.9,38.9h-29.2H90.6c-21.5,0-38.9-17.4-38.9-38.9V178.2H100.3z" />
								</g>
							</g>
							<path class="st2" d="M421.4,416.5h-253c-2.7,0-4.9-2.2-4.9-4.9c0-2.7-2.2-4.9-4.9-4.9c-2.7,0-4.9,2.2-4.9,4.9      c0,2.7-2.2,4.9-4.9,4.9l-58.4,0c-24.1,0-43.8-19.6-43.8-43.8V178.2c0-2.7,2.2-4.9,4.9-4.9h272.4c2.7,0,4.9,2.2,4.9,4.9      c0,2.7,2.2,4.9,4.9,4.9s4.9-2.2,4.9-4.9c0-2.7,2.2-4.9,4.9-4.9h116.8c2.7,0,4.9,2.2,4.9,4.9v194.6      C465.2,396.9,445.5,416.5,421.4,416.5z M172.5,406.8h248.9c18.8,0,34.1-15.3,34.1-34.1V183H347.6c-2,5.7-7.4,9.7-13.8,9.7      c-6.3,0-11.8-4.1-13.8-9.7H56.5v189.7c0,18.8,15.3,34.1,34.1,34.1h54.3c2-5.7,7.4-9.7,13.8-9.7      C165,397.1,170.5,401.1,172.5,406.8z"
							/>
						</g>
						<g>
							<g>
								<g>
									<path class="st0" d="M460.3,372.8c0-21.5-17.4-38.9-38.9-38.9l-19.5,0V100.3l19.5,0c21.5,0,38.9,17.4,38.9,38.9V372.8z" />
									<g>
										<path class="st1" d="M440.8,139.2c0-21.5-17.4-38.9-38.9-38.9l19.4,0c21.5,0,38.9,17.4,38.9,38.9v233.5         c0-14.4-7.8-27-19.5-33.7V139.2z"
										/>
										<path class="st1" d="M401.9,333.8L401.9,333.8L401.9,333.8C401.9,333.8,401.9,333.8,401.9,333.8z" />
									</g>
								</g>
								<path class="st2" d="M460.3,377.6c-2.7,0-4.9-2.2-4.9-4.9c0-18.8-15.3-34.1-34.1-34.1h-19.5c-2.7,0-4.9-2.2-4.9-4.9V100.3       c0-2.7,2.2-4.9,4.9-4.9l19.5,0c24.1,0,43.8,19.6,43.8,43.8v233.5C465.2,375.4,463,377.6,460.3,377.6z M406.8,329h14.6       c13.7,0,26,6.4,34.1,16.3v-206c0-18.8-15.3-34.1-34.1-34.1l-14.6,0V329z"
								/>
							</g>
							<g>
								<g>
									<path class="st2" d="M421.4,277.9c-1.3,0-2.4-1.1-2.4-2.4V100.3c0-1.3,1.1-2.4,2.4-2.4c1.3,0,2.4,1.1,2.4,2.4v175.1        C423.8,276.8,422.7,277.9,421.4,277.9z"
									/>
								</g>
								<g>
									<path class="st2" d="M421.4,336.3c-1.3,0-2.4-1.1-2.4-2.4v-38.9c0-1.3,1.1-2.4,2.4-2.4c1.3,0,2.4,1.1,2.4,2.4v38.9        C423.8,335.2,422.7,336.3,421.4,336.3z"
									/>
								</g>
							</g>
						</g>
						<g>
							<g>
								<g>
									<path class="st0" d="M51.7,372.8c0-21.5,17.4-38.9,38.9-38.9l19.5,0V100.3l-19.5,0c-21.5,0-38.9,17.4-38.9,38.9V372.8z" />
									<g>
										<path class="st1" d="M71.1,139.2c0-21.5,17.4-38.9,38.9-38.9l-19.4,0c-21.5,0-38.9,17.4-38.9,38.9v233.5         c0-14.4,7.8-27,19.5-33.7V139.2z"
										/>
										<path class="st1" d="M110,333.8L110,333.8L110,333.8C110.1,333.8,110,333.8,110,333.8z" />
									</g>
								</g>
								<path class="st2" d="M51.7,377.6c-2.7,0-4.9-2.2-4.9-4.9V139.3c0-24.1,19.6-43.8,43.8-43.8l19.5,0c2.7,0,4.9,2.2,4.9,4.9v233.5       c0,2.7-2.2,4.9-4.9,4.9H90.6c-18.8,0-34.1,15.3-34.1,34.1C56.5,375.4,54.4,377.6,51.7,377.6z M90.6,105.2       c-18.8,0-34.1,15.3-34.1,34.1v206c8-9.9,20.3-16.3,34.1-16.3h14.6V105.2L90.6,105.2z"
								/>
							</g>
							<g>
								<g>
									<path class="st2" d="M90.6,277.9c-1.3,0-2.4-1.1-2.4-2.4V100.3c0-1.3,1.1-2.4,2.4-2.4c1.3,0,2.4,1.1,2.4,2.4v175.1        C93,276.8,91.9,277.9,90.6,277.9z"
									/>
								</g>
								<g>
									<path class="st2" d="M90.6,336.3c-1.3,0-2.4-1.1-2.4-2.4v-38.9c0-1.3,1.1-2.4,2.4-2.4c1.3,0,2.4,1.1,2.4,2.4v38.9        C93,335.2,91.9,336.3,90.6,336.3z"
									/>
								</g>
							</g>
						</g>
					</g>
					<g>
						<g>
							<polygon class="st3" points="185,224 171.3,210.2 158.7,222.8 146.1,210.2 132.4,224 144.9,236.5 132.4,249.1 146.1,262.9       158.7,250.3 171.3,262.9 185,249.1 172.5,236.5     "
							/>
							<g>
								<polygon class="st4" points="164.2,235.2 169,240.1 185,224 180.2,219.1      " />
								<polygon class="st4" points="153.3,234.9 137.2,219.1 132.4,224 148.4,239.8      " />
								<polygon class="st4" points="171.3,253.2 158.7,240.6 146.1,253.2 137.2,244.3 132.4,249.1 146.1,262.9 158.7,250.3        171.3,262.9 185,249.1 180.2,244.3      "
								/>
							</g>
						</g>
						<path class="st2" d="M171.3,267.7c-1.3,0-2.5-0.5-3.4-1.4l-9.1-9.1l-9.1,9.1c-1.9,1.9-5,1.9-6.9,0l-13.8-13.8     c-1.9-1.9-1.9-5,0-6.9l9.1-9.1l-9.1-9.1c-1.9-1.9-1.9-5,0-6.9l13.8-13.8c0.9-0.9,2.1-1.4,3.4-1.4c1.3,0,2.5,0.5,3.4,1.4l9.1,9.1     l9.1-9.1c0.9-0.9,2.1-1.4,3.4-1.4s2.5,0.5,3.4,1.4l13.8,13.8c1.9,1.9,1.9,5,0,6.9l-9.1,9.1l9.1,9.1c1.9,1.9,1.9,5,0,6.9     l-13.8,13.8C173.8,267.2,172.6,267.7,171.3,267.7z M139.2,249.1l6.9,6.9l9.1-9.1c1.9-1.9,5-1.9,6.9,0l9.1,9.1l6.9-6.9L169,240     c-1.9-1.9-1.9-5,0-6.9l9.1-9.1l-6.9-6.9l-9.1,9.1c-0.9,0.9-2.1,1.4-3.4,1.4c-1.3,0-2.5-0.5-3.4-1.4l-9.1-9.1l-6.9,6.9l9.1,9.1     c1.9,1.9,1.9,5,0,6.9L139.2,249.1z"
						/>
					</g>
					<g>
						<g>
							<circle class="st5" cx="256" cy="353.3" r="19.5" />
							<path class="st6" d="M256,363c-9.1,0-16.7-6.2-18.8-14.6c-0.4,1.6-0.6,3.2-0.6,4.9c0,10.7,8.7,19.5,19.5,19.5      c10.7,0,19.5-8.7,19.5-19.5c0-1.7-0.2-3.3-0.6-4.9C272.7,356.8,265.1,363,256,363z"
							/>
						</g>
						<path class="st2" d="M256,377.6c-13.4,0-24.3-10.9-24.3-24.3S242.6,329,256,329c13.4,0,24.3,10.9,24.3,24.3     S269.4,377.6,256,377.6z M256,338.7c-8,0-14.6,6.5-14.6,14.6c0,8,6.5,14.6,14.6,14.6s14.6-6.5,14.6-14.6     C270.6,345.2,264,338.7,256,338.7z"
						/>
					</g>
					<g>
						<g>
							<path class="st2" d="M203.7,241.4h-6.1c-2.7,0-4.9-2.2-4.9-4.9c0-2.7,2.2-4.9,4.9-4.9h6.1c2.7,0,4.9,2.2,4.9,4.9      C208.6,239.2,206.4,241.4,203.7,241.4z"
							/>
						</g>
						<g>
							<path class="st2" d="M334.8,354.5c-2,0-3.8-1.2-4.6-3.2c-0.9-2.5,0.3-5.3,2.9-6.3c3.2-1.2,6.4-2.8,9.3-4.6      c2.3-1.4,5.3-0.7,6.7,1.6c1.4,2.3,0.7,5.3-1.6,6.7c-3.5,2.2-7.2,4-11.1,5.4C336,354.4,335.4,354.5,334.8,354.5z M367.4,324.3      c-0.7,0-1.4-0.1-2-0.5c-2.4-1.1-3.5-4-2.4-6.5c1.5-3.1,2.6-6.5,3.4-9.8c0.6-2.6,3.3-4.2,5.9-3.6c2.6,0.6,4.2,3.3,3.6,5.9      c-1,4-2.3,7.9-4.1,11.6C371,323.2,369.2,324.3,367.4,324.3z M369.3,279.9c-2,0-3.9-1.2-4.6-3.2c-1.2-3.3-2.7-6.4-4.5-9.4      c-1.4-2.3-0.6-5.3,1.7-6.7c2.3-1.4,5.3-0.6,6.7,1.7c2.1,3.5,3.9,7.3,5.3,11.1c0.9,2.5-0.4,5.3-2.9,6.2      C370.4,279.8,369.8,279.9,369.3,279.9z M339.5,247.1c-0.7,0-1.4-0.2-2.1-0.5c-3.1-1.5-6.4-2.7-9.8-3.5c-2.6-0.7-4.2-3.3-3.5-5.9      c0.7-2.6,3.3-4.2,5.9-3.5c4,1,7.9,2.4,11.6,4.2c2.4,1.2,3.5,4.1,2.3,6.5C343,246,341.3,247.1,339.5,247.1z M294.8,241.4h-11.4      c-2.7,0-4.9-2.2-4.9-4.9c0-2.7,2.2-4.9,4.9-4.9h11.4c2.7,0,4.9,2.2,4.9,4.9C299.6,239.2,297.5,241.4,294.8,241.4z M249.2,241.4      h-11.4c-2.7,0-4.9-2.2-4.9-4.9c0-2.7,2.2-4.9,4.9-4.9h11.4c2.7,0,4.9,2.2,4.9,4.9C254.1,239.2,251.9,241.4,249.2,241.4z"
							/>
						</g>
						<g>
							<path class="st2" d="M301,358.2h-6.1c-2.7,0-4.9-2.2-4.9-4.9c0-2.7,2.2-4.9,4.9-4.9h6.1c2.7,0,4.9,2.2,4.9,4.9      C305.9,356,303.7,358.2,301,358.2z"
							/>
						</g>
					</g>
					<g>
						<g>
							<path class="st2" d="M178.2,348.4c-2.7,0-4.9-2.2-4.9-4.9v-19.5c0-2.7,2.2-4.9,4.9-4.9c2.7,0,4.9,2.2,4.9,4.9v19.5      C183,346.3,180.9,348.4,178.2,348.4z"
							/>
						</g>
						<g>
							<path class="st2" d="M187.9,338.7h-19.5c-2.7,0-4.9-2.2-4.9-4.9c0-2.7,2.2-4.9,4.9-4.9h19.5c2.7,0,4.9,2.2,4.9,4.9      C192.8,336.5,190.6,338.7,187.9,338.7z"
							/>
						</g>
					</g>
					<g>
						<g>
							<path class="st2" d="M139.2,319.2c-2.7,0-4.9-2.2-4.9-4.9v-19.5c0-2.7,2.2-4.9,4.9-4.9c2.7,0,4.9,2.2,4.9,4.9v19.5      C144.1,317.1,141.9,319.2,139.2,319.2z"
							/>
						</g>
						<g>
							<path class="st2" d="M149,309.5h-19.5c-2.7,0-4.9-2.2-4.9-4.9c0-2.7,2.2-4.9,4.9-4.9H149c2.7,0,4.9,2.2,4.9,4.9      C153.8,307.3,151.7,309.5,149,309.5z"
							/>
						</g>
					</g>
				</g>
			</g>
		</svg>