<?xml version="1.0" ?><svg height="48" id="svg6964" version="1.1" viewBox="0 0 48 48.000001" width="48" xmlns="http://www.w3.org/2000/svg" xmlns:cc="http://creativecommons.org/ns#" xmlns:dc="http://purl.org/dc/elements/1.1/" xmlns:inkscape="http://www.inkscape.org/namespaces/inkscape" xmlns:rdf="http://www.w3.org/1999/02/22-rdf-syntax-ns#" xmlns:sodipodi="http://sodipodi.sourceforge.net/DTD/sodipodi-0.dtd" xmlns:svg="http://www.w3.org/2000/svg"><defs id="defs6966"><pattern height="6" id="EMFhbasepattern" patternUnits="userSpaceOnUse" width="6" x="0" y="0"/><pattern height="6" id="EMFhbasepattern-5" patternUnits="userSpaceOnUse" width="6" x="0" y="0"/><pattern height="6" id="EMFhbasepattern-9" patternUnits="userSpaceOnUse" width="6" x="0" y="0"/></defs><g id="layer1" transform="translate(0,-1004.3622)"><g id="g25050" transform="translate(-2258.9139,-556.42206)"><path d="m -2277.7857,-1589.4974 a 14.250358,14.250358 0 0 1 16.2546,6.6601 14.250358,14.250358 0 0 1 -2.5598,17.3785 14.250358,14.250358 0 0 1 -17.4845,1.6905 14.250358,14.250358 0 0 1 -5.8417,-16.5662" id="path21483" style="fill:#f29f4a;stroke:#3b3c3d;stroke-width:1.5;stroke-linecap:butt;stroke-linejoin:miter;stroke-miterlimit:4;stroke-dasharray:none;stroke-opacity:1" transform="scale(-1,-1)"/><circle cx="-2291.9136" cy="-1593.7837" id="circle21485" r="14.250358" style="fill:#36d7b7;stroke:#3b3c3d;stroke-width:1.5;stroke-linecap:butt;stroke-linejoin:miter;stroke-miterlimit:4;stroke-dasharray:none;stroke-opacity:1" transform="scale(-1,-1)"/><path d="m 2273.2183,1575.7834 10.997,0" id="path21489" style="fill:none;stroke:#3b3c3d;stroke-width:1.5;stroke-linecap:butt;stroke-linejoin:miter;stroke-miterlimit:4;stroke-dasharray:none;stroke-opacity:1"/><path d="m 2263.5896,1575.7834 2.3674,-3.6908 4.7348,0 2.3675,3.6908 -2.3675,3.6908 -4.7348,0 z" id="path21491" style="fill:#81d4ef;stroke:#3b3c3d;stroke-width:1.5;stroke-linecap:butt;stroke-linejoin:miter;stroke-miterlimit:4;stroke-dasharray:none;stroke-opacity:1"/><ellipse cx="2268.3245" cy="1575.7833" id="circle21493" rx="1.3746258" ry="1.3876115" style="fill:#f29f4a;stroke:#3b3c3d;stroke-width:1.50000012;stroke-linecap:butt;stroke-linejoin:miter;stroke-miterlimit:4;stroke-dasharray:none;stroke-dashoffset:0;stroke-opacity:1"/><path d="m 2280.2152,1578.7835 4.0001,0" id="path21495" style="fill:none;stroke:#3b3c3d;stroke-width:1.5;stroke-linecap:butt;stroke-linejoin:miter;stroke-miterlimit:4;stroke-dasharray:none;stroke-opacity:1"/><path d="m 2284.1627,1593.7867 3.8751,3.8751 11.6253,-7.7502" id="path21497" style="fill:none;stroke:#3b3c3d;stroke-width:1.5;stroke-linecap:butt;stroke-linejoin:miter;stroke-miterlimit:4;stroke-dasharray:none;stroke-opacity:1"/></g></g></svg>