<?xml version="1.0" ?><svg id="Layer_1_1_" style="enable-background:new 0 0 64 64;" version="1.1" viewBox="0 0 64 64" xml:space="preserve" xmlns="http://www.w3.org/2000/svg" xmlns:xlink="http://www.w3.org/1999/xlink"><g><path d="M44,1H6C3.243,1,1,3.243,1,6v52c0,2.757,2.243,5,5,5h39v-2H13V33h3.2l11-12H47v5.447h2V6C49,3.243,46.757,1,44,1z M47,6v5   H22.8L13,21.691V3h31C45.654,3,47,4.346,47,6z M11,31H3v-6h8V31z M6,3h5v20H3V6C3,4.346,4.346,3,6,3z M11,61H6   c-1.654,0-3-1.346-3-3V33h8V61z M26.32,19l-11,12H13v-6.349L23.68,13H47v6H26.32z"/><g><path d="M44,25c-10.477,0-19,8.523-19,19s8.523,19,19,19s19-8.523,19-19S54.477,25,44,25z M44,48    c-2.209,0-4-1.791-4-4c0-2.209,1.791-4,4-4s4,1.791,4,4C48,46.209,46.209,48,44,48z" style="fill:#00F4CB;"/></g><g><path d="M29.152,46.142C29.051,45.437,29,44.716,29,44h2c0,0.622,0.044,1.247,0.131,1.858L29.152,46.142z"/></g><g><path d="M44,59c-6.588,0-12.501-4.406-14.379-10.715l1.917-0.57C33.165,53.182,38.29,57,44,57V59z"/></g><g><path d="M44,53c-4.962,0-9-4.037-9-9s4.038-9,9-9s9,4.037,9,9S48.962,53,44,53z M44,37c-3.86,0-7,3.141-7,7s3.14,7,7,7    s7-3.141,7-7S47.86,37,44,37z"/></g><g><path d="M44,49c-2.757,0-5-2.243-5-5s2.243-5,5-5s5,2.243,5,5S46.757,49,44,49z M44,41c-1.654,0-3,1.346-3,3s1.346,3,3,3    s3-1.346,3-3S45.654,41,44,41z"/></g></g></svg>